<svg width="13" height="13" viewBox="0 0 13 13" fill="none" xmlns="http://www.w3.org/2000/svg">
<path d="M11.2542 10.496C10.9342 10.496 10.6582 10.388 10.4262 10.172C10.2022 9.94797 10.0902 9.66397 10.0902 9.31997C10.0902 8.97597 10.2022 8.69997 10.4262 8.49197C10.6582 8.27597 10.9342 8.16797 11.2542 8.16797C11.5822 8.16797 11.8582 8.27597 12.0822 8.49197C12.3062 8.69997 12.4182 8.97597 12.4182 9.31997C12.4182 9.66397 12.3062 9.94797 12.0822 10.172C11.8582 10.388 11.5822 10.496 11.2542 10.496Z" fill="black"/>
<path d="M0 10.4L3.744 2H5.664L9.42 10.4H7.38L4.308 2.984H5.076L1.992 10.4H0ZM1.872 8.6L2.388 7.124H6.708L7.236 8.6H1.872Z" fill="black"/>
</svg>
